<svg width="37" height="37" viewBox="0 0 37 37" fill="none" xmlns="http://www.w3.org/2000/svg">
<path d="M6.16667 6.16659H10.7917L13.875 3.08325H23.125L26.2083 6.16659H30.8333C31.6511 6.16659 32.4353 6.49144 33.0136 7.06967C33.5918 7.64791 33.9167 8.43217 33.9167 9.24992V27.7499C33.9167 28.5677 33.5918 29.3519 33.0136 29.9302C32.4353 30.5084 31.6511 30.8333 30.8333 30.8333H6.16667C5.34892 30.8333 4.56466 30.5084 3.98642 29.9302C3.40818 29.3519 3.08333 28.5677 3.08333 27.7499V9.24992C3.08333 8.43217 3.40818 7.64791 3.98642 7.06967C4.56466 6.49144 5.34892 6.16659 6.16667 6.16659ZM18.5 10.7916C16.4556 10.7916 14.495 11.6037 13.0494 13.0493C11.6038 14.4949 10.7917 16.4555 10.7917 18.4999C10.7917 20.5443 11.6038 22.5049 13.0494 23.9505C14.495 25.3961 16.4556 26.2083 18.5 26.2083C20.5444 26.2083 22.505 25.3961 23.9506 23.9505C25.3962 22.5049 26.2083 20.5443 26.2083 18.4999C26.2083 16.4555 25.3962 14.4949 23.9506 13.0493C22.505 11.6037 20.5444 10.7916 18.5 10.7916ZM18.5 13.8749C19.7266 13.8749 20.903 14.3622 21.7704 15.2295C22.6377 16.0969 23.125 17.2733 23.125 18.4999C23.125 19.7265 22.6377 20.9029 21.7704 21.7703C20.903 22.6376 19.7266 23.1249 18.5 23.1249C17.2734 23.1249 16.097 22.6376 15.2296 21.7703C14.3623 20.9029 13.875 19.7265 13.875 18.4999C13.875 17.2733 14.3623 16.0969 15.2296 15.2295C16.097 14.3622 17.2734 13.8749 18.5 13.8749Z" fill="black"/>
</svg>
