<svg width="25" height="25" viewBox="0 0 25 25" fill="none" xmlns="http://www.w3.org/2000/svg">
<path fill-rule="evenodd" clip-rule="evenodd" d="M17.2188 6.4299L17.2344 6.41544L18.7813 7.84773V4.59252L18 3.86914H3.9375L3.14062 4.59252V5.30577L3.125 5.3159V20.2031L3.6875 20.8686L11.5 23.357L12.5 22.677V21.2303H18L18.7813 20.5069V17.2517L17.2188 18.6984V19.7835H12.5V7.78986L11.9844 7.12435L6.30625 5.3159H17.2188V6.4299ZM10.9375 21.6353L4.6875 19.6967V6.35757L10.9375 8.29622V21.6353ZM15.7656 11.8697H23.5312V13.3165H15.8281L18.3125 15.6313L17.2031 16.644L13.3438 13.085V12.0578L17.2344 8.46984L18.3281 9.48257L15.7656 11.8697Z" fill="white"/>
</svg>
