<svg width="25" height="24" viewBox="0 0 25 24" fill="none" xmlns="http://www.w3.org/2000/svg">
<path fill-rule="evenodd" clip-rule="evenodd" d="M17.2188 5.45426L17.2344 5.43979L18.7813 6.87208V3.61687L18 2.89349H3.9375L3.14062 3.61687V4.33013L3.125 4.34025V19.2274L3.6875 19.8929L11.5 22.3813L12.5 21.7014V20.2546H18L18.7813 19.5312V16.276L17.2188 17.7228V18.8078H12.5V6.81421L11.9844 6.1487L6.30625 4.34025H17.2188V5.45426ZM10.9375 20.6597L4.6875 18.721V5.38192L10.9375 7.32058V20.6597ZM15.7656 10.8941H23.5312V12.3408H15.8281L18.3125 14.6556L17.2031 15.6684L13.3438 12.1094V11.0822L17.2344 7.49419L18.3281 8.50692L15.7656 10.8941Z" fill="#3BA153"/>
</svg>
