<svg width="21" height="19" viewBox="0 0 21 19" fill="none" xmlns="http://www.w3.org/2000/svg">
<g clip-path="url(#clip0_25_377)">
<path d="M0.291685 18.9899C0.366391 19.0097 0.445759 18.9988 0.512585 18.9594C0.579411 18.9201 0.628311 18.8555 0.648685 18.7797C1.24952 16.4979 3.69135 15.9066 5.15085 15.5527C5.5166 15.4642 5.80535 15.3941 5.99318 15.3116C7.65568 14.5771 8.1976 13.3956 8.35977 12.5335C8.36941 12.4822 8.36559 12.4292 8.34869 12.3799C8.33179 12.3306 8.30241 12.2867 8.26352 12.2526C7.39785 11.492 6.66752 10.3502 6.20668 9.03686C6.19368 8.9992 6.17323 8.96464 6.1466 8.93533C5.53702 8.26083 5.18702 7.54774 5.18702 6.97952C5.18702 6.64761 5.3101 6.42496 5.58718 6.25693C5.62869 6.23167 5.66337 6.19631 5.68812 6.15402C5.71286 6.11174 5.72689 6.06385 5.72893 6.01468C5.85785 2.99011 7.97419 0.609176 10.57 0.593739L10.6324 0.597895C13.2411 0.634708 15.344 3.06671 15.4193 6.13402C15.4203 6.17595 15.4301 6.21716 15.448 6.25494C15.4659 6.29271 15.4915 6.32618 15.5231 6.35311C15.7057 6.51046 15.7909 6.70996 15.7909 6.98071C15.7909 7.4563 15.5418 8.04115 15.0903 8.62658C15.0688 8.65475 15.0522 8.68649 15.0413 8.7204C14.5746 10.2261 13.7369 11.5556 12.7441 12.369C12.703 12.4028 12.6716 12.4473 12.6533 12.4978C12.635 12.5483 12.6305 12.6029 12.6403 12.6558C12.8024 13.5173 13.3444 14.6983 15.0069 15.4339C15.2034 15.5206 15.5085 15.5883 15.8953 15.6732C17.3402 15.9915 19.7581 16.5252 20.3514 18.7797C20.3613 18.8174 20.3785 18.8527 20.4018 18.8836C20.4252 18.9145 20.4543 18.9404 20.4875 18.9599C20.5207 18.9793 20.5573 18.992 20.5953 18.997C20.6333 19.0021 20.6719 18.9994 20.7089 18.9893C20.7459 18.9792 20.7806 18.9617 20.811 18.9379C20.8414 18.9142 20.8668 18.8845 20.8859 18.8507C20.9051 18.8169 20.9175 18.7796 20.9224 18.741C20.9274 18.7023 20.9248 18.663 20.9149 18.6253C20.2294 16.0206 17.4901 15.4167 16.0189 15.0925C15.6777 15.0171 15.3831 14.9524 15.2396 14.8883C14.1546 14.4085 13.4861 13.6776 13.2499 12.7122C14.2573 11.8316 15.1002 10.4731 15.582 8.94958C16.0936 8.27271 16.3748 7.57564 16.3748 6.98011C16.3748 6.58289 16.2488 6.25158 15.9991 5.99271C15.8603 2.66533 13.5275 0.0451138 10.6324 0.00295752L10.5455 0.00177002C7.70293 0.0172075 5.36027 2.56855 5.15552 5.83833C4.79035 6.11146 4.60485 6.49443 4.60485 6.98071C4.60485 7.68311 4.9951 8.52327 5.67818 9.29396C6.1501 10.6139 6.8816 11.7735 7.75252 12.5851C7.51743 13.5541 6.84835 14.2874 5.76102 14.7677C5.62043 14.8301 5.34043 14.8984 5.0161 14.9767C3.53385 15.3354 0.775851 16.0033 0.0851848 18.6265C0.0652386 18.7026 0.0757877 18.7836 0.114512 18.8517C0.153237 18.9199 0.216966 18.9696 0.291685 18.9899Z" fill="white"/>
</g>
<defs>
<clipPath id="clip0_25_377">
<rect width="21" height="19" fill="white"/>
</clipPath>
</defs>
</svg>
