<svg width="59" height="54" viewBox="0 0 59 54" fill="none" xmlns="http://www.w3.org/2000/svg">
<g clip-path="url(#clip0_25_380)">
<path d="M0.819437 53.9713C1.02933 54.0276 1.25231 53.9964 1.44006 53.8846C1.62781 53.7728 1.7652 53.5893 1.82244 53.3739C3.51049 46.8888 10.3709 45.2081 14.4714 44.2023C15.499 43.9509 16.3102 43.7518 16.8379 43.5172C21.5088 41.4298 23.0313 38.0716 23.4869 35.6214C23.514 35.4756 23.5033 35.325 23.4558 35.1849C23.4083 35.0448 23.3258 34.92 23.2165 34.8232C20.7844 32.6615 18.7325 29.4164 17.4378 25.6837C17.4012 25.5766 17.3438 25.4784 17.269 25.3951C15.5563 23.4781 14.573 21.4514 14.573 19.8365C14.573 18.8932 14.9188 18.2604 15.6973 17.7828C15.8139 17.711 15.9113 17.6105 15.9808 17.4904C16.0504 17.3702 16.0898 17.2341 16.0955 17.0943C16.4577 8.49819 22.4036 1.73132 29.6967 1.68744L29.872 1.69925C37.2011 1.80388 43.1093 8.71588 43.3207 17.4335C43.3237 17.5527 43.3512 17.6698 43.4015 17.7772C43.4518 17.8845 43.5237 17.9796 43.6125 18.0562C44.1254 18.5034 44.3647 19.0704 44.3647 19.8399C44.3647 21.1916 43.6649 22.8538 42.3964 24.5176C42.336 24.5977 42.2894 24.6879 42.2587 24.7843C40.9476 29.0638 38.5942 32.8421 35.8048 35.1539C35.6893 35.25 35.6011 35.3765 35.5498 35.52C35.4984 35.6635 35.4857 35.8187 35.5131 35.969C35.9687 38.4176 37.4912 41.774 42.1621 43.8648C42.7144 44.1112 43.5715 44.3036 44.6581 44.5449C48.7176 45.4494 55.5108 46.9664 57.1776 53.3739C57.2055 53.4809 57.2537 53.5812 57.3193 53.6691C57.385 53.757 57.4668 53.8306 57.5601 53.886C57.6533 53.9413 57.7563 53.9771 57.863 53.9915C57.9698 54.0058 58.0782 53.9984 58.1822 53.9696C58.2861 53.9408 58.3836 53.8911 58.4689 53.8236C58.5542 53.756 58.6258 53.6718 58.6795 53.5757C58.7332 53.4797 58.7681 53.3737 58.782 53.2637C58.7959 53.1538 58.7887 53.0422 58.7607 52.9351C56.835 45.5321 49.1388 43.8159 45.0055 42.8945C44.0468 42.6802 43.2191 42.4963 42.816 42.314C39.7676 40.9505 37.8895 38.8732 37.2257 36.1293C40.0561 33.6268 42.4243 29.7658 43.778 25.4356C45.2153 23.5119 46.0052 21.5308 46.0052 19.8382C46.0052 18.7093 45.6512 17.7676 44.9498 17.0319C44.5597 7.57513 38.0058 0.128192 29.872 0.00837988L29.6278 0.00500488C21.6415 0.0488799 15.0597 7.30007 14.4845 16.5931C13.4585 17.3694 12.9374 18.4578 12.9374 19.8399C12.9374 21.8362 14.0338 24.224 15.9529 26.4144C17.2788 30.1657 19.334 33.4614 21.7808 35.7682C21.1204 38.5222 19.2405 40.6063 16.1857 41.9714C15.7907 42.1486 15.004 42.3427 14.0928 42.5654C9.92838 43.5847 2.17972 45.4831 0.239271 52.9385C0.183231 53.1547 0.212869 53.3849 0.321667 53.5786C0.430465 53.7722 0.609513 53.9135 0.819437 53.9713Z" fill="#F7F7F7"/>
</g>
<defs>
<clipPath id="clip0_25_380">
<rect width="59" height="54" fill="white"/>
</clipPath>
</defs>
</svg>
