<svg width="25" height="25" viewBox="0 0 25 25" fill="none" xmlns="http://www.w3.org/2000/svg">
<path d="M5.20833 22.9167C4.63542 22.9167 4.14514 22.7129 3.7375 22.3052C3.32986 21.8976 3.12569 21.407 3.125 20.8334V6.25004C3.125 5.67712 3.32917 5.18685 3.7375 4.77921C4.14583 4.37157 4.63611 4.1674 5.20833 4.16671H6.25V2.08337H8.33333V4.16671H16.6667V2.08337H18.75V4.16671H19.7917C20.3646 4.16671 20.8552 4.37087 21.2635 4.77921C21.6719 5.18754 21.8757 5.67782 21.875 6.25004V11.1198C21.875 11.415 21.775 11.6625 21.575 11.8625C21.375 12.0625 21.1278 12.1622 20.8333 12.1615C20.5389 12.1608 20.2917 12.0608 20.0917 11.8615C19.8917 11.6622 19.7917 11.415 19.7917 11.1198V10.4167H5.20833V20.8334H11.25C11.5451 20.8334 11.7927 20.9334 11.9927 21.1334C12.1927 21.3334 12.2924 21.5806 12.2917 21.875C12.291 22.1695 12.191 22.4171 11.9917 22.6177C11.7924 22.8184 11.5451 22.9181 11.25 22.9167H5.20833ZM18.75 23.9584C17.309 23.9584 16.0809 23.4504 15.0656 22.4344C14.0503 21.4184 13.5424 20.1903 13.5417 18.75C13.541 17.3098 14.049 16.0816 15.0656 15.0657C16.0823 14.0497 17.3104 13.5417 18.75 13.5417C20.1896 13.5417 21.4181 14.0497 22.4354 15.0657C23.4528 16.0816 23.9604 17.3098 23.9583 18.75C23.9562 20.1903 23.4483 21.4188 22.4344 22.4355C21.4205 23.4521 20.1924 23.9598 18.75 23.9584ZM20.4948 21.224L21.224 20.4948L19.2708 18.5417V15.625H18.2292V18.9584L20.4948 21.224Z" fill="black"/>
</svg>
