<svg width="20" height="20" viewBox="0 0 20 20" fill="none" xmlns="http://www.w3.org/2000/svg">
<path d="M13.3332 3.3332C13.3332 3.11222 13.2454 2.90029 13.0892 2.74404C12.9329 2.58778 12.721 2.5 12.5 2.5H7.5C7.27902 2.5 7.06709 2.58778 6.91084 2.74404C6.75458 2.90029 6.6668 3.11222 6.6668 3.3332V5.8332H13.3332V3.3332ZM17.5 16.6668V6.6668C17.5001 6.55735 17.4785 6.44896 17.4367 6.34783C17.3948 6.24669 17.3335 6.15479 17.2561 6.07738C17.1787 5.99997 17.0869 5.93856 16.9857 5.89666C16.8846 5.85476 16.7763 5.8332 16.6668 5.8332H3.3332C3.22375 5.8332 3.11537 5.85476 3.01426 5.89666C2.91314 5.93856 2.82127 5.99997 2.7439 6.07738C2.66652 6.15479 2.60516 6.24669 2.56331 6.34783C2.52146 6.44896 2.49995 6.55735 2.5 6.6668V16.6668C2.5 16.8878 2.58778 17.0997 2.74404 17.256C2.90029 17.4122 3.11222 17.5 3.3332 17.5H16.6668C16.8878 17.5 17.0997 17.4122 17.256 17.256C17.4122 17.0997 17.5 16.8878 17.5 16.6668Z" stroke="#3BA153" stroke-width="2" stroke-linecap="round" stroke-linejoin="round"/>
<path d="M9.16682 11.6668H7.20002C6.55325 11.6613 5.92205 11.4677 5.38344 11.1096C4.84484 10.7514 4.4221 10.2443 4.16682 9.65001L2.65002 6.19161C2.7265 6.08114 2.82859 5.99084 2.94757 5.92843C3.06655 5.86602 3.19887 5.83334 3.33322 5.83321H16.6668C16.8012 5.83334 16.9335 5.86602 17.0525 5.92843C17.1715 5.99084 17.2735 6.08114 17.35 6.19161L15.8332 9.65001C15.5779 10.2443 15.1552 10.7514 14.6166 11.1096C14.078 11.4677 13.4468 11.6613 12.8 11.6668H10.8332" stroke="#3BA153" stroke-width="2" stroke-linecap="round" stroke-linejoin="round"/>
<path d="M10.8332 10.8332H9.16681V12.5H10.8332V10.8332Z" stroke="#3BA153" stroke-width="2" stroke-linecap="round" stroke-linejoin="round"/>
</svg>
